<?xml version="1.0" encoding="UTF-8"?>
<svg id="Objects" xmlns="http://www.w3.org/2000/svg" version="1.1" viewBox="0 0 279.35 152.37">
  <!-- Generator: Adobe Illustrator 30.0.0, SVG Export Plug-In . SVG Version: 2.1.1 Build 123)  -->
  <defs>
    <style>
      .st0 {
        fill: #e5e5ea;
      }

      .st1 {
        fill: #067ffe;
      }
    </style>
  </defs>
  <g>
    <path class="st0" d="M-748.49,787.83v193.36c0,37.63-30.51,68.15-68.15,68.15h-699.34c-15.43,0-29.68-5.14-41.1-13.78-25.29,17.33-50.04,21.45-50.04,21.45,0,0,23-21.3,23-75.81v-193.36c0-37.63,30.51-68.15,68.15-68.15h699.34c37.63,0,68.15,30.51,68.15,68.15Z"/>
    <path class="st0" d="M-748.49,482.03v108.18c0,37.63-30.51,68.15-68.15,68.15h-699.34c-15.43,0-29.68-5.14-41.1-13.78-25.29,17.33-50.04,21.45-50.04,21.45,0,0,23-21.3,23-75.81v-108.18c0-37.63,30.51-68.15,68.15-68.15h699.34c37.63,0,68.15,30.51,68.15,68.15Z"/>
    <path class="st0" d="M-748.49,279.24c0,19.98-8.1,38.07-21.19,51.16-13.09,13.09-31.18,21.19-51.16,21.19l-690.87.09c-16,0-30.78-5.19-42.77-13.97-25.49,17.51-52.64,21.54-52.64,21.54,0,0,23-22.35,23-79.98,0-39.98,32.41-72.4,72.4-72.4h690.89c39.96,0,72.35,32.39,72.35,72.35Z"/>
    <path class="st0" d="M-1327.78,72.35c0,19.98-8.1,38.07-21.19,51.16s-31.18,21.19-51.16,21.19l-111.58.09c-16,0-30.78-5.19-42.77-13.97-25.49,17.51-52.64,21.54-52.64,21.54,0,0,23-22.35,23-79.98C-1584.13,32.41-1551.72,0-1511.73,0h111.6C-1360.17,0-1327.78,32.39-1327.78,72.35Z"/>
    <path class="st0" d="M-748.49,72.35c0,19.98-8.1,38.07-21.19,51.16-13.09,13.09-31.18,21.19-51.16,21.19l-364.57.09c-16,0-30.78-5.19-42.77-13.97-25.49,17.51-52.64,21.54-52.64,21.54,0,0,23-22.35,23-79.98C-1257.83,32.41-1225.42,0-1185.43,0h364.59C-780.89,0-748.49,32.39-748.49,72.35Z"/>
    <path class="st0" d="M-748.49-134.64c0,19.98-8.1,38.07-21.19,51.16-13.09,13.09-31.18,21.19-51.16,21.19l-246.22.09c-16,0-30.78-5.19-42.77-13.97-25.49,17.51-52.64,21.54-52.64,21.54,0,0,23-22.35,23-79.98,0-39.98,32.41-72.4,72.4-72.4h246.24c39.96,0,72.35,32.39,72.35,72.35Z"/>
    <path class="st0" d="M-1231.47-134.64c0,19.98-8.1,38.07-21.19,51.16s-31.18,21.19-51.16,21.19l-200.22.09c-16,0-30.78-5.19-42.77-13.97-25.49,17.51-52.64,21.54-52.64,21.54,0,0,23-22.35,23-79.98,0-39.98,32.41-72.4,72.4-72.4h200.24c39.96,0,72.35,32.39,72.35,72.35Z"/>
  </g>
  <path class="st1" d="M-579.29,787.83v193.36c0,37.63,30.51,68.15,68.15,68.15H188.2c15.43,0,29.68-5.14,41.1-13.78,25.29,17.33,50.04,21.45,50.04,21.45,0,0-23-21.3-23-75.81v-193.36c0-37.63-30.51-68.15-68.15-68.15H-511.14c-37.63,0-68.15,30.51-68.15,68.15Z"/>
  <path class="st1" d="M-579.29,482.03v108.18c0,37.63,30.51,68.15,68.15,68.15H188.2c15.43,0,29.68-5.14,41.1-13.78,25.29,17.33,50.04,21.45,50.04,21.45,0,0-23-21.3-23-75.81v-108.18c0-37.63-30.51-68.15-68.15-68.15H-511.14c-37.63,0-68.15,30.51-68.15,68.15Z"/>
  <path class="st1" d="M-579.29,279.24c0,19.98,8.1,38.07,21.19,51.16,13.09,13.09,31.18,21.19,51.16,21.19l690.87.09c16,0,30.78-5.19,42.77-13.97,25.49,17.51,52.64,21.54,52.64,21.54,0,0-23-22.35-23-79.98,0-39.98-32.41-72.4-72.4-72.4H-506.94c-39.96,0-72.35,32.39-72.35,72.35Z"/>
  <path d="M0,72.35c0,19.98,8.1,38.07,21.19,51.16,13.09,13.09,31.18,21.19,51.16,21.19l111.58.09c16,0,30.78-5.19,42.77-13.97,25.49,17.51,52.64,21.54,52.64,21.54,0,0-23-22.35-23-79.98C256.35,32.41,223.94,0,183.95,0h-111.6C32.39,0,0,32.39,0,72.35Z"/>
  <path class="st1" d="M-579.29,72.35c0,19.98,8.1,38.07,21.19,51.16,13.09,13.09,31.18,21.19,51.16,21.19l364.57.09c16,0,30.78-5.19,42.77-13.97,25.49,17.51,52.64,21.54,52.64,21.54,0,0-23-22.35-23-79.98C-69.95,32.41-102.36,0-142.35,0h-364.59c-39.96,0-72.35,32.39-72.35,72.35Z"/>
  <path class="st1" d="M-579.29-134.64c0,19.98,8.1,38.07,21.19,51.16,13.09,13.09,31.18,21.19,51.16,21.19l246.22.09c16,0,30.78-5.19,42.77-13.97,25.49,17.51,52.64,21.54,52.64,21.54,0,0-23-22.35-23-79.98,0-39.98-32.41-72.4-72.4-72.4h-246.24c-39.96,0-72.35,32.39-72.35,72.35Z"/>
  <path class="st1" d="M-96.31-134.64c0,19.98,8.1,38.07,21.19,51.16,13.09,13.09,31.18,21.19,51.16,21.19l200.22.09c16,0,30.78-5.19,42.77-13.97,25.49,17.51,52.64,21.54,52.64,21.54,0,0-23-22.35-23-79.98,0-39.98-32.41-72.4-72.4-72.4H-23.95c-39.96,0-72.35,32.39-72.35,72.35Z"/>
</svg>